<mxfile host="app.diagrams.net" agent="Mozilla/5.0 (Windows NT 10.0; Win64; x64) AppleWebKit/537.36 (KHTML, like Gecko) Chrome/130.0.0.0 Safari/537.36" version="24.8.4">
  <diagram name="Page-1" id="bN1aZ6BZSWau3l3xe_gV">
    <mxGraphModel dx="1050" dy="522" grid="1" gridSize="10" guides="1" tooltips="1" connect="1" arrows="1" fold="1" page="1" pageScale="1" pageWidth="850" pageHeight="1100" math="0" shadow="0">
      <root>
        <mxCell id="0" />
        <mxCell id="1" parent="0" />
        <mxCell id="PnjcyFMfAKBJvZ8ztsNH-2" value="DataBase" style="image;aspect=fixed;html=1;points=[];align=center;fontSize=12;image=img/lib/azure2/databases/SQL_Database.svg;fontStyle=1" vertex="1" parent="1">
          <mxGeometry x="220" y="410" width="48" height="64" as="geometry" />
        </mxCell>
        <mxCell id="PnjcyFMfAKBJvZ8ztsNH-3" value="DataBase" style="image;aspect=fixed;html=1;points=[];align=center;fontSize=12;image=img/lib/azure2/databases/SQL_Database.svg;fontStyle=1;spacingTop=0;verticalAlign=top;" vertex="1" parent="1">
          <mxGeometry x="470" y="410" width="48" height="64" as="geometry" />
        </mxCell>
        <mxCell id="PnjcyFMfAKBJvZ8ztsNH-11" value="" style="image;sketch=0;aspect=fixed;html=1;points=[];align=center;fontSize=12;image=img/lib/mscae/Docker.svg;" vertex="1" parent="1">
          <mxGeometry x="325" y="80" width="100" height="82" as="geometry" />
        </mxCell>
        <mxCell id="PnjcyFMfAKBJvZ8ztsNH-16" style="edgeStyle=orthogonalEdgeStyle;rounded=0;orthogonalLoop=1;jettySize=auto;html=1;" edge="1" parent="1" source="PnjcyFMfAKBJvZ8ztsNH-14" target="PnjcyFMfAKBJvZ8ztsNH-11">
          <mxGeometry relative="1" as="geometry">
            <Array as="points">
              <mxPoint x="244" y="121" />
            </Array>
          </mxGeometry>
        </mxCell>
        <mxCell id="PnjcyFMfAKBJvZ8ztsNH-29" style="edgeStyle=orthogonalEdgeStyle;rounded=0;orthogonalLoop=1;jettySize=auto;html=1;" edge="1" parent="1" source="PnjcyFMfAKBJvZ8ztsNH-14" target="PnjcyFMfAKBJvZ8ztsNH-27">
          <mxGeometry relative="1" as="geometry">
            <Array as="points">
              <mxPoint x="244" y="210" />
            </Array>
          </mxGeometry>
        </mxCell>
        <mxCell id="PnjcyFMfAKBJvZ8ztsNH-14" value="User Service" style="sketch=0;aspect=fixed;pointerEvents=1;shadow=0;dashed=0;html=1;strokeColor=none;labelPosition=left;verticalLabelPosition=middle;verticalAlign=middle;align=right;fillColor=#00188D;shape=mxgraph.mscae.enterprise.device;horizontal=1;fontStyle=1;labelBackgroundColor=none;labelBorderColor=none;spacingTop=0;spacingRight=5;" vertex="1" parent="1">
          <mxGeometry x="205.54" y="307" width="76.92" height="40" as="geometry" />
        </mxCell>
        <mxCell id="PnjcyFMfAKBJvZ8ztsNH-15" style="edgeStyle=orthogonalEdgeStyle;rounded=0;orthogonalLoop=1;jettySize=auto;html=1;entryX=0.5;entryY=1;entryDx=0;entryDy=0;entryPerimeter=0;" edge="1" parent="1" source="PnjcyFMfAKBJvZ8ztsNH-2" target="PnjcyFMfAKBJvZ8ztsNH-14">
          <mxGeometry relative="1" as="geometry" />
        </mxCell>
        <mxCell id="PnjcyFMfAKBJvZ8ztsNH-19" style="edgeStyle=orthogonalEdgeStyle;rounded=0;orthogonalLoop=1;jettySize=auto;html=1;" edge="1" parent="1" target="PnjcyFMfAKBJvZ8ztsNH-11">
          <mxGeometry relative="1" as="geometry">
            <mxPoint x="494" y="307" as="sourcePoint" />
            <Array as="points">
              <mxPoint x="494" y="121" />
            </Array>
          </mxGeometry>
        </mxCell>
        <mxCell id="PnjcyFMfAKBJvZ8ztsNH-18" style="edgeStyle=orthogonalEdgeStyle;rounded=0;orthogonalLoop=1;jettySize=auto;html=1;entryX=0.5;entryY=1;entryDx=0;entryDy=0;entryPerimeter=0;" edge="1" parent="1" source="PnjcyFMfAKBJvZ8ztsNH-3">
          <mxGeometry relative="1" as="geometry">
            <mxPoint x="494" y="347" as="targetPoint" />
          </mxGeometry>
        </mxCell>
        <mxCell id="PnjcyFMfAKBJvZ8ztsNH-26" style="edgeStyle=orthogonalEdgeStyle;rounded=0;orthogonalLoop=1;jettySize=auto;html=1;" edge="1" parent="1" source="PnjcyFMfAKBJvZ8ztsNH-21" target="PnjcyFMfAKBJvZ8ztsNH-22">
          <mxGeometry relative="1" as="geometry">
            <Array as="points">
              <mxPoint x="494" y="210" />
            </Array>
          </mxGeometry>
        </mxCell>
        <mxCell id="PnjcyFMfAKBJvZ8ztsNH-21" value="Auth Service" style="sketch=0;aspect=fixed;pointerEvents=1;shadow=0;dashed=0;html=1;strokeColor=none;labelPosition=left;verticalLabelPosition=middle;verticalAlign=middle;align=right;fillColor=#00188D;shape=mxgraph.mscae.enterprise.device;horizontal=1;fontStyle=1;labelBackgroundColor=none;labelBorderColor=none;spacingTop=0;spacingRight=5;" vertex="1" parent="1">
          <mxGeometry x="455.53999999999996" y="307" width="76.92" height="40" as="geometry" />
        </mxCell>
        <mxCell id="PnjcyFMfAKBJvZ8ztsNH-22" value="Router" style="image;html=1;image=img/lib/clip_art/networking/Wireless_Router_128x128.png;verticalAlign=top;fontStyle=1;labelBackgroundColor=none;" vertex="1" parent="1">
          <mxGeometry x="600" y="180" width="60" height="50" as="geometry" />
        </mxCell>
        <mxCell id="PnjcyFMfAKBJvZ8ztsNH-27" value="Router" style="image;html=1;image=img/lib/clip_art/networking/Wireless_Router_128x128.png;verticalAlign=top;fontStyle=1;labelBackgroundColor=none;" vertex="1" parent="1">
          <mxGeometry x="80" y="180" width="60" height="50" as="geometry" />
        </mxCell>
      </root>
    </mxGraphModel>
  </diagram>
</mxfile>
